<svg width="323" height="436" viewBox="0 0 323 436" fill="none" xmlns="http://www.w3.org/2000/svg">
<g opacity="0.1" clip-path="url(#clip0)">
<mask id="mask0" mask-type="alpha" maskUnits="userSpaceOnUse" x="-1" y="-4" width="475" height="647">
<rect x="-1" y="-4" width="475" height="647" fill="#C4C4C4"/>
</mask>
<g mask="url(#mask0)">
<path d="M70.2828 130.642L70.2089 130.598L37.2625 111.62V73.5759L37.3364 73.5316L70.2828 54.5537L70.3567 54.598L103.303 73.5759V111.62L103.229 111.664L70.2828 130.642ZM37.5582 111.458L70.2828 130.318L103.007 111.458V73.7382L70.2828 54.8784L37.5582 73.7382V111.458Z" fill="#E95262"/>
<path d="M103.17 301.119L103.096 301.074L70.1498 282.096V244.052L70.2237 244.008L103.17 225.03L103.244 225.074L136.19 244.052V282.096L136.117 282.141L103.17 301.119ZM70.4307 281.934L103.155 300.794L135.88 281.934V244.214L103.155 225.355L70.4307 244.214V281.934Z" fill="#E95262"/>
<path d="M70.2828 357.949L70.2089 357.905L37.2625 338.927V300.882L37.3364 300.838L70.2828 281.86L70.3567 281.905L103.303 300.882V338.927L103.229 338.971L70.2828 357.949ZM37.5582 338.75L70.2828 357.609L103.007 338.75V301.045L70.2828 282.185L37.5582 301.045V338.75Z" fill="#E95262"/>
<path d="M136.043 357.949L135.969 357.905L103.022 338.927V300.882L103.096 300.838L136.043 281.86L136.116 281.905L169.063 300.882V338.927L168.989 338.971L136.043 357.949ZM103.303 338.75L136.028 357.609L168.752 338.75V301.045L136.028 282.185L103.303 301.045V338.75Z" fill="#E95262"/>
<path d="M201.788 357.949L201.714 357.905L168.767 338.927V300.882L168.841 300.838L201.788 281.86L201.861 281.905L234.808 300.882V338.927L234.734 338.971L201.788 357.949ZM169.048 338.75L201.773 357.609L234.497 338.75V301.045L201.773 282.185L169.048 301.045V338.75Z" fill="#E95262"/>
<path d="M267.532 357.949L267.458 357.905L234.512 338.927V300.882L234.586 300.838L267.532 281.86L267.606 281.905L300.553 300.882V338.927L300.479 338.971L267.532 357.949ZM234.808 338.75L267.532 357.609L300.257 338.75V301.045L267.532 282.185L234.808 301.045V338.75Z" fill="#E95262"/>
<path d="M103.17 414.764L103.096 414.72L70.1498 395.742V357.698L70.2237 357.654L103.17 338.676L103.244 338.72L136.19 357.698V395.742L136.117 395.787L103.17 414.764ZM70.4307 395.58L103.155 414.44L135.88 395.58V357.86L103.155 339L70.4307 357.86V395.58Z" fill="#E95262"/>
<path d="M168.915 414.764L168.841 414.72L135.895 395.742V357.698L135.969 357.654L168.915 338.676L168.989 338.72L201.935 357.698V395.742L201.861 395.787L168.915 414.764ZM136.176 395.58L168.915 414.44L201.64 395.58V357.86L168.915 339L136.176 357.86V395.58Z" fill="#E95262"/>
<path d="M234.66 414.764L234.586 414.72L201.64 395.742V357.698L201.714 357.654L234.66 338.676L234.734 338.72L267.68 357.698V395.742L267.606 395.787L234.66 414.764ZM201.935 395.58L234.66 414.44L267.385 395.58V357.86L234.66 339L201.935 357.86V395.58Z" fill="#E95262"/>
<path d="M37.5582 436V414.691L70.2828 395.831L103.022 414.691V436H103.303V414.528L70.3567 395.536L70.2828 395.491L37.3364 414.484L37.2772 414.528V436H37.5582Z" fill="#E95262"/>
<path d="M103.303 436V414.691L136.042 395.831L168.767 414.691V436H169.048V414.528L136.116 395.536L136.042 395.491L103.096 414.484L103.022 414.528V436H103.303Z" fill="#E95262"/>
<path d="M169.048 436V414.691L201.788 395.831L234.512 414.691V436H234.808V414.528L201.861 395.536L201.788 395.491L168.841 414.484L168.767 414.528V436H169.048Z" fill="#E95262"/>
<path d="M234.808 436V414.691L267.532 395.831L300.272 414.691V436H300.553V414.528L267.606 395.536L267.532 395.491L234.586 414.484L234.512 414.528V436H234.808Z" fill="#E95262"/>
<path d="M-3.72839 129.506V131.232L16.3086 142.773V191.28L-3.72839 202.82V204.547L17.7873 192.136V141.917L-3.72839 129.506Z" fill="#E95262"/>
<path d="M59.8872 217.253L16.3086 192.136V141.902L59.902 116.785L103.495 141.902V192.136L59.8872 217.253ZM17.7873 191.28L59.8872 215.541L101.987 191.28V142.758L59.8872 118.497L17.7873 142.758V191.28Z" fill="#E95262"/>
<path d="M145.58 217.253L101.987 192.136V141.902L145.58 116.785L189.174 141.902V192.136L145.58 217.253ZM103.481 191.28L145.58 215.541L187.68 191.28V142.758L145.58 118.497L103.481 142.773V191.28Z" fill="#E95262"/>
<path d="M17.048 190.852L-3.72839 202.82V204.547L17.048 192.564L59.1478 216.825V265.347L17.048 289.593L-3.72839 277.625V279.337L17.048 291.32L60.6413 266.203V215.969L17.048 190.852Z" fill="#E95262"/>
<path d="M102.741 291.32L59.1478 266.203V215.969L102.741 190.852L146.335 215.969V266.203L102.741 291.32ZM60.6414 265.347L102.741 289.593L144.841 265.332V216.81L102.741 192.564L60.6414 216.825V265.347Z" fill="#E95262"/>
<path d="M188.42 291.32L144.826 266.203V215.969L188.42 190.852L232.013 215.969V266.203L188.42 291.32ZM146.32 265.347L188.42 289.608L230.519 265.347V216.825L188.42 192.564L146.32 216.825V265.347Z" fill="#E95262"/>
<path d="M-3.72839 277.625V279.337L16.3086 290.892V339.399L-3.72839 350.939V352.651L17.7873 340.255V290.021L-3.72839 277.625Z" fill="#E95262"/>
<path d="M59.8872 365.372L16.2938 340.255V290.021L59.8872 264.904L103.481 290.021V340.255L59.8872 365.372ZM17.7874 339.399L59.8872 363.66L101.987 339.399V290.877L59.8872 266.616L17.7874 290.877V339.399Z" fill="#E95262"/>
<path d="M145.58 365.372L101.987 340.255V290.021L145.58 264.904L189.174 290.021V340.255L145.58 365.372ZM103.481 339.399L145.58 363.66L187.68 339.399V290.877L145.58 266.616L103.481 290.892V339.399Z" fill="#E95262"/>
<path d="M-3.72839 427.456L11.1034 436H14.0757L-3.72839 425.744V427.456Z" fill="#E95262"/>
<path d="M17.048 338.971L-3.72839 350.939V352.651L17.048 340.683L59.1478 364.944V413.451L20.0202 436H22.9925L60.6413 414.322V364.088L17.048 338.971Z" fill="#E95262"/>
<path d="M99.7689 436L60.6414 413.451V364.944L102.741 340.683L144.841 364.944V413.451L105.713 436H108.686L146.32 414.322V364.088L102.741 338.971L59.1478 364.088V414.322L96.7818 436H99.7689Z" fill="#E95262"/>
<path d="M185.447 436L146.32 413.451V364.944L188.42 340.683L230.519 364.944V413.451L191.407 436H194.379L232.013 414.322V364.088L188.42 338.971L144.841 364.088V414.322L182.475 436H185.447Z" fill="#E95262"/>
<path d="M-3.72839 425.744V427.456L11.1034 436H14.0757L-3.72839 425.744Z" fill="#E95262"/>
<path d="M22.9927 436L59.8873 414.75L96.782 436H99.769L59.8873 413.023L20.0204 436H22.9927Z" fill="#E95262"/>
<path d="M108.686 436L145.58 414.75L182.475 436H185.447L145.58 413.023L105.714 436H108.686Z" fill="#E95262"/>
<path d="M194.379 436L231.274 414.75L268.168 436H271.14L231.274 413.023L191.407 436H194.379Z" fill="#E95262"/>
<path d="M280.072 436L316.967 414.75L353.847 436H356.834L316.967 413.023L277.085 436H280.072Z" fill="#E95262"/>
<path d="M103.17 76.0107C104.471 76.0107 105.536 74.9481 105.536 73.6495C105.536 72.3509 104.471 71.2883 103.17 71.2883C101.869 71.2883 100.804 72.3509 100.804 73.6495C100.804 74.9629 101.854 76.0107 103.17 76.0107Z" fill="#E95262"/>
<path d="M70.2829 127.469C68.6119 127.469 67.2662 128.827 67.2662 130.48C67.2662 132.147 68.6267 133.49 70.2829 133.49C71.9539 133.49 73.3143 132.133 73.3143 130.48C73.3143 128.812 71.9539 127.469 70.2829 127.469Z" fill="#E95262"/>
<path d="M37.4103 113.45C38.4638 113.45 39.3178 112.598 39.3178 111.546C39.3178 110.495 38.4638 109.643 37.4103 109.643C36.3567 109.643 35.5027 110.495 35.5027 111.546C35.5027 112.598 36.3567 113.45 37.4103 113.45Z" fill="#E95262"/>
<path d="M37.4102 75.0957C38.2087 75.0957 38.8594 74.4464 38.8594 73.6495C38.8594 72.8526 38.2087 72.2032 37.4102 72.2032C36.6117 72.2032 35.9611 72.8526 35.9611 73.6495C35.9758 74.4464 36.6117 75.0957 37.4102 75.0957Z" fill="#E95262"/>
<path d="M70.2828 59.1284C72.7247 59.1284 74.7042 57.1529 74.7042 54.716C74.7042 52.2791 72.7247 50.3036 70.2828 50.3036C67.8409 50.3036 65.8613 52.2791 65.8613 54.716C65.8613 57.1529 67.8409 59.1284 70.2828 59.1284Z" fill="#E95262"/>
<path d="M103.17 115.25C105.225 115.25 106.882 113.583 106.882 111.546C106.882 109.51 105.211 107.842 103.17 107.842C101.129 107.842 99.4584 109.51 99.4584 111.546C99.4584 113.583 101.115 115.25 103.17 115.25Z" fill="#E95262"/>
<path d="M70.2828 240.673C68.3752 240.673 66.8225 242.222 66.8225 244.126C66.8225 246.03 68.3752 247.579 70.2828 247.579C72.1903 247.579 73.743 246.03 73.743 244.126C73.7578 242.222 72.2051 240.673 70.2828 240.673Z" fill="#E95262"/>
<path d="M37.41 225.501C37.5814 225.501 37.7203 225.363 37.7203 225.192C37.7203 225.021 37.5814 224.882 37.41 224.882C37.2386 224.882 37.0997 225.021 37.0997 225.192C37.0997 225.363 37.2386 225.501 37.41 225.501Z" fill="#E95262"/>
<path d="M37.4103 190.07C38.9375 190.07 40.1755 188.834 40.1755 187.31C40.1755 185.786 38.9375 184.551 37.4103 184.551C35.8831 184.551 34.645 185.786 34.645 187.31C34.645 188.834 35.8831 190.07 37.4103 190.07Z" fill="#E95262"/>
<path d="M70.2828 165.986C68.9667 165.986 67.902 167.048 67.902 168.362C67.902 169.675 68.9667 170.738 70.2828 170.738C71.5988 170.738 72.6635 169.675 72.6635 168.362C72.6635 167.048 71.5988 165.986 70.2828 165.986Z" fill="#E95262"/>
<path d="M133.884 244.126C133.884 245.306 134.845 246.28 136.043 246.28C137.226 246.28 138.201 245.321 138.201 244.126C138.201 242.945 137.24 241.971 136.043 241.971C134.845 241.986 133.884 242.945 133.884 244.126Z" fill="#E95262"/>
<path d="M103.17 229.368C105.492 229.368 107.355 227.494 107.355 225.192C107.355 222.89 105.477 221.016 103.17 221.016C100.848 221.016 98.9852 222.89 98.9852 225.192C98.9852 227.494 100.848 229.368 103.17 229.368Z" fill="#E95262"/>
<path d="M136.042 285.564C138.009 285.564 139.606 283.97 139.606 282.008C139.606 280.045 138.009 278.451 136.042 278.451C134.076 278.451 132.479 280.045 132.479 282.008C132.479 283.97 134.076 285.564 136.042 285.564Z" fill="#E95262"/>
<path d="M203.473 282.008C203.473 281.078 202.719 280.325 201.787 280.325C200.856 280.325 200.102 281.078 200.102 282.008C200.102 282.937 200.856 283.69 201.787 283.69C202.719 283.69 203.473 282.952 203.473 282.008Z" fill="#E95262"/>
<path d="M234.66 304.217C236.464 304.217 237.928 302.756 237.928 300.956C237.928 299.156 236.464 297.695 234.66 297.695C232.856 297.695 231.392 299.156 231.392 300.956C231.392 302.756 232.856 304.217 234.66 304.217Z" fill="#E95262"/>
<path d="M270.697 282.008C270.697 280.266 269.277 278.85 267.532 278.85C265.787 278.85 264.368 280.266 264.368 282.008C264.368 283.749 265.787 285.166 267.532 285.166C269.277 285.166 270.697 283.749 270.697 282.008Z" fill="#E95262"/>
<path d="M300.405 304.645C302.446 304.645 304.102 302.993 304.102 300.956C304.102 298.92 302.446 297.267 300.405 297.267C298.364 297.267 296.708 298.92 296.708 300.956C296.708 302.993 298.364 304.645 300.405 304.645Z" fill="#E95262"/>
<path d="M70.2827 359.911C71.4587 359.911 72.4121 358.96 72.4121 357.786C72.4121 356.613 71.4587 355.661 70.2827 355.661C69.1067 355.661 68.1533 356.613 68.1533 357.786C68.1533 358.96 69.1067 359.911 70.2827 359.911Z" fill="#E95262"/>
<path d="M37.4103 340.535C38.3495 340.535 39.1108 339.775 39.1108 338.838C39.1108 337.901 38.3495 337.141 37.4103 337.141C36.4711 337.141 35.7097 337.901 35.7097 338.838C35.7097 339.775 36.4711 340.535 37.4103 340.535Z" fill="#E95262"/>
<path d="M36.6117 300.956C36.6117 301.399 36.9666 301.768 37.425 301.768C37.8686 301.768 38.2383 301.414 38.2383 300.956C38.2383 300.513 37.8834 300.145 37.425 300.145C36.9666 300.145 36.6117 300.513 36.6117 300.956Z" fill="#E95262"/>
<path d="M70.2828 285.343C72.1285 285.343 73.6247 283.85 73.6247 282.008C73.6247 280.166 72.1285 278.673 70.2828 278.673C68.437 278.673 66.9408 280.166 66.9408 282.008C66.9408 283.85 68.437 285.343 70.2828 285.343Z" fill="#E95262"/>
<path d="M100.405 338.838C100.405 340.358 101.632 341.583 103.155 341.583C104.678 341.583 105.906 340.358 105.906 338.838C105.906 337.318 104.678 336.093 103.155 336.093C101.647 336.093 100.405 337.318 100.405 338.838Z" fill="#E95262"/>
<path d="M105.048 300.956C105.048 299.908 104.205 299.067 103.155 299.067C102.105 299.067 101.263 299.908 101.263 300.956C101.263 302.004 102.105 302.845 103.155 302.845C104.205 302.845 105.048 302.004 105.048 300.956Z" fill="#E95262"/>
<path d="M168.915 299.406C168.057 299.406 167.362 300.1 167.362 300.956C167.362 301.812 168.057 302.505 168.915 302.505C169.773 302.505 170.468 301.812 170.468 300.956C170.453 300.1 169.773 299.406 168.915 299.406Z" fill="#E95262"/>
<path d="M199.185 357.786C199.185 359.218 200.353 360.384 201.787 360.384C203.222 360.384 204.39 359.218 204.39 357.786C204.39 356.355 203.222 355.189 201.787 355.189C200.353 355.174 199.185 356.34 199.185 357.786Z" fill="#E95262"/>
<path d="M168.915 335.09C166.845 335.09 165.159 336.772 165.159 338.838C165.159 340.904 166.845 342.586 168.915 342.586C170.985 342.586 172.671 340.904 172.671 338.838C172.671 336.772 170.985 335.09 168.915 335.09Z" fill="#E95262"/>
<path d="M300.405 342.882C302.638 342.882 304.457 341.066 304.457 338.838C304.457 336.61 302.638 334.795 300.405 334.795C298.172 334.795 296.353 336.61 296.353 338.838C296.368 341.066 298.172 342.882 300.405 342.882Z" fill="#E95262"/>
<path d="M133.543 357.786C133.543 359.159 134.652 360.28 136.042 360.28C137.418 360.28 138.542 359.174 138.542 357.786C138.542 356.414 137.432 355.292 136.042 355.292C134.667 355.292 133.543 356.399 133.543 357.786Z" fill="#E95262"/>
<path d="M136.043 399.727C138.29 399.727 140.124 397.911 140.124 395.654C140.124 393.41 138.305 391.581 136.043 391.581C133.795 391.581 131.961 393.396 131.961 395.654C131.961 397.911 133.78 399.727 136.043 399.727Z" fill="#E95262"/>
<path d="M234.66 343.088C237.012 343.088 238.919 341.185 238.919 338.838C238.919 336.491 237.012 334.588 234.66 334.588C232.308 334.588 230.401 336.491 230.401 338.838C230.401 341.185 232.308 343.088 234.66 343.088Z" fill="#E95262"/>
<path d="M267.532 359.351C268.398 359.351 269.1 358.65 269.1 357.786C269.1 356.922 268.398 356.222 267.532 356.222C266.667 356.222 265.965 356.922 265.965 357.786C265.965 358.65 266.667 359.351 267.532 359.351Z" fill="#E95262"/>
<path d="M300.405 417.745C302.135 417.745 303.54 416.343 303.54 414.617C303.54 412.89 302.135 411.488 300.405 411.488C298.675 411.488 297.27 412.89 297.27 414.617C297.27 416.329 298.675 417.745 300.405 417.745Z" fill="#E95262"/>
<path d="M267.532 400.465C270.187 400.465 272.338 398.317 272.338 395.668C272.338 393.02 270.187 390.872 267.532 390.872C264.878 390.872 262.727 393.02 262.727 395.668C262.727 398.317 264.878 400.465 267.532 400.465Z" fill="#E95262"/>
<path d="M38.0461 414.602C38.0461 414.263 37.7652 413.967 37.4103 413.967C37.0554 413.967 36.7744 414.248 36.7744 414.602C36.7744 414.956 37.0554 415.237 37.4103 415.237C37.7652 415.237 38.0461 414.956 38.0461 414.602Z" fill="#E95262"/>
<path d="M70.2827 393.617C69.1441 393.617 68.2273 394.532 68.2273 395.668C68.2273 396.805 69.1441 397.72 70.2827 397.72C71.4214 397.72 72.3382 396.805 72.3382 395.668C72.3382 394.532 71.4214 393.617 70.2827 393.617Z" fill="#E95262"/>
<path d="M103.17 409.378C100.287 409.378 97.9353 411.71 97.9353 414.602C97.9353 417.48 100.272 419.826 103.17 419.826C106.054 419.826 108.405 417.494 108.405 414.602C108.39 411.724 106.054 409.378 103.17 409.378Z" fill="#E95262"/>
<path d="M168.915 411.444C167.17 411.444 165.75 412.861 165.75 414.602C165.75 416.343 167.17 417.76 168.915 417.76C170.66 417.76 172.079 416.343 172.079 414.602C172.065 412.861 170.66 411.444 168.915 411.444Z" fill="#E95262"/>
<path d="M201.787 399.254C203.769 399.254 205.381 397.646 205.381 395.668C205.381 393.691 203.769 392.082 201.787 392.082C199.806 392.082 198.194 393.691 198.194 395.668C198.194 397.646 199.806 399.254 201.787 399.254Z" fill="#E95262"/>
<path d="M238.771 414.602C238.771 412.329 236.922 410.5 234.66 410.5C232.397 410.5 230.549 412.344 230.549 414.602C230.549 416.875 232.397 418.705 234.66 418.705C236.922 418.705 238.771 416.875 238.771 414.602Z" fill="#E95262"/>
</g>
</g>
<defs>
<clipPath id="clip0">
<rect width="324" height="440" fill="white" transform="translate(-1 -4)"/>
</clipPath>
</defs>
</svg>
