<svg width="352" height="435" viewBox="0 0 352 435" fill="none" xmlns="http://www.w3.org/2000/svg">
<g opacity="0.16" clip-path="url(#clip0)">
<mask id="mask0" mask-type="alpha" maskUnits="userSpaceOnUse" x="0" y="-5" width="518" height="648">
<rect y="-5" width="518" height="648" fill="#C4C4C4"/>
</mask>
<g mask="url(#mask0)">
<path d="M80.9348 76.3007L80.86 76.2558L47.501 56.9974V18.3758L47.5759 18.3309L80.9348 -0.92749L81.0097 -0.88256L114.369 18.3758V56.9824L114.294 57.0273L80.9348 76.3007ZM47.7855 56.8177L80.9199 75.9563L114.054 56.8177V18.5555L80.9199 -0.583051L47.7855 18.5555V56.8177Z" fill="#F8C85D"/>
<path d="M147.503 76.3007L147.428 76.2558L114.069 56.9974V18.3758L114.144 18.3309L147.503 -0.92749L147.578 -0.88256L180.937 18.3758V56.9824L180.862 57.0273L147.503 76.3007ZM114.354 56.8177L147.503 75.9563L180.637 56.8177V18.5555L147.503 -0.583051L114.369 18.5555V56.8177H114.354Z" fill="#F8C85D"/>
<path d="M214.071 76.3007L213.996 76.2558L180.637 56.9974V18.3758L180.712 18.3309L214.071 -0.92749L214.146 -0.88256L247.505 18.3758V56.9824L247.43 57.0273L214.071 76.3007ZM180.937 56.8177L214.086 75.9563L247.221 56.8177V18.5555L214.086 -0.583051L180.937 18.5555V56.8177Z" fill="#F8C85D"/>
<path d="M280.654 76.3007L280.58 76.2558L247.221 56.9974V18.3758L247.295 18.3309L280.654 -0.92749L280.729 -0.88256L314.088 18.3758V56.9824L314.013 57.0273L280.654 76.3007ZM247.505 56.8177L280.639 75.9563L313.774 56.8177V18.5555L280.639 -0.583051L247.505 18.5555V56.8177Z" fill="#F8C85D"/>
<path d="M355.398 71.239L347.222 75.9563L314.073 56.8177V18.5555L347.222 -0.583051L355.398 4.1342V3.78977L347.297 -0.88256L347.222 -0.92749L313.864 18.3459L313.789 18.3758V56.9974L347.148 76.2558L347.222 76.3007L355.398 71.5834V71.239Z" fill="#F8C85D"/>
<path d="M114.219 133.956L114.144 133.911L80.7852 114.653V76.0461L80.8601 76.0012L114.219 56.7428L114.294 56.7877L147.653 76.0461V114.653L147.578 114.698L114.219 133.956ZM81.0697 114.488L114.204 133.627L147.338 114.488V76.2108L114.204 57.0723L81.0697 76.2108V114.488Z" fill="#F8C85D"/>
<path d="M180.787 133.956L180.712 133.911L147.353 114.653V76.0461L147.428 76.0012L180.787 56.7428L180.862 56.7877L214.221 76.0461V114.653L214.146 114.698L180.787 133.956ZM147.653 114.488L180.787 133.627L213.922 114.488V76.2108L180.787 57.0723L147.653 76.2108V114.488Z" fill="#F8C85D"/>
<path d="M247.355 133.956L247.28 133.911L213.921 114.653V76.0461L213.996 76.0012L247.355 56.7428L247.43 56.7877L280.789 76.0461V114.653L280.714 114.698L247.355 133.956ZM214.221 114.488L247.355 133.627L280.49 114.488V76.2108L247.355 57.0723L214.221 76.2108V114.488Z" fill="#F8C85D"/>
<path d="M313.938 133.956L313.864 133.911L280.505 114.653V76.0461L280.579 76.0012L313.938 56.7428L314.013 56.7877L347.372 76.0461V114.653L347.297 114.698L313.938 133.956ZM280.789 114.488L313.923 133.627L347.058 114.488V76.2108L313.923 57.0723L280.789 76.2108V114.488Z" fill="#F8C85D"/>
<path d="M355.398 119.13L347.357 114.488V76.2108L355.398 71.5835V71.239L347.148 76.0012L347.073 76.0461V114.653L355.398 119.46V119.13Z" fill="#F8C85D"/>
<path d="M214.071 191.626L213.996 191.581L180.637 172.323V133.716L180.712 133.671L214.071 114.413L214.146 114.458L247.505 133.716V172.323L247.43 172.368L214.071 191.626ZM180.937 172.158L214.086 191.297L247.221 172.158V133.881L214.086 114.743L180.937 133.881V172.158Z" fill="#F8C85D"/>
<path d="M280.654 191.626L280.58 191.581L247.221 172.323V133.716L247.295 133.671L280.654 114.413L280.729 114.458L314.088 133.716V172.323L314.013 172.368L280.654 191.626ZM247.505 172.158L280.639 191.297L313.774 172.158V133.881L280.639 114.743L247.505 133.881V172.158Z" fill="#F8C85D"/>
<path d="M355.398 186.565L347.222 191.297L314.073 172.158V133.881L347.222 114.743L355.398 119.46V119.13L347.297 114.443L347.222 114.398L313.864 133.671L313.789 133.716V172.323L347.148 191.581L347.222 191.626L355.398 186.909V186.565Z" fill="#F8C85D"/>
<path d="M247.355 249.296L247.28 249.252L213.921 229.993V191.387L213.996 191.342L247.355 172.083L247.43 172.128L280.789 191.387V229.993L280.714 230.038L247.355 249.296ZM214.221 229.813L247.355 248.952L280.49 229.813V191.536L247.355 172.398L214.221 191.536V229.813Z" fill="#F8C85D"/>
<path d="M313.938 249.296L313.864 249.252L280.505 229.993V191.387L280.579 191.342L313.938 172.083L314.013 172.128L347.372 191.387V229.993L347.297 230.038L313.938 249.296ZM280.789 229.813L313.923 248.952L347.058 229.813V191.536L313.938 172.398L280.804 191.536V229.813H280.789Z" fill="#F8C85D"/>
<path d="M355.398 234.456L347.357 229.814V191.536L355.398 186.909V186.565L347.148 191.327L347.073 191.372V229.978L355.398 234.785V234.456Z" fill="#F8C85D"/>
<path d="M280.654 306.952L280.58 306.907L247.221 287.649V249.042L247.295 248.997L280.654 229.739L280.729 229.784L314.088 249.042V287.649L314.013 287.693L280.654 306.952ZM247.505 287.484L280.639 306.622L313.774 287.484V249.207L280.639 230.068L247.505 249.207V287.484Z" fill="#F8C85D"/>
<path d="M355.398 301.905L347.222 306.622L314.073 287.484V249.207L347.222 230.068L355.398 234.785V234.456L347.297 229.769L347.222 229.739L313.864 248.997L313.789 249.042V287.649L347.148 306.907L347.222 306.952L355.398 302.235V301.905Z" fill="#F8C85D"/>
<path d="M355.398 349.782L347.357 345.139V306.877L355.398 302.235V301.905L347.148 306.667L347.073 306.697V345.319L355.398 350.111V349.782Z" fill="#F8C85D"/>
<path d="M214.221 443.827V422.203L247.355 403.064L280.505 422.203V443.827H280.789V422.038L247.43 402.765L247.355 402.72L213.996 421.993L213.936 422.038V443.827H214.221Z" fill="#F8C85D"/>
<path d="M280.789 443.827V422.203L313.938 403.064L347.073 422.203V443.827H347.357V422.038L313.998 402.765L313.938 402.72L280.579 421.993L280.505 422.038V443.827H280.789Z" fill="#F8C85D"/>
<path d="M204.638 71.5386L160.499 46.0504V-4.91091L204.638 -30.399L248.778 -4.91091V46.0654L204.638 71.5386ZM162.012 45.1968L204.638 69.8164L247.265 45.1968V-4.04233L204.638 -28.6619L162.012 -4.04233V45.1968Z" fill="#F8C85D"/>
<path d="M291.405 71.5386L247.266 46.0504V-4.91091L291.405 -30.399L335.544 -4.91091V46.0654L291.405 71.5386ZM248.778 45.1968L291.405 69.8164L334.032 45.1968V-4.04233L291.405 -28.6619L248.778 -4.04233V45.1968Z" fill="#F8C85D"/>
<path d="M355.398 56.6529L335.529 45.1967V-4.04243L355.398 -15.5136V-17.2507L334.032 -4.911V46.0653L355.398 58.39V56.6529Z" fill="#F8C85D"/>
<path d="M248.014 146.7L203.875 121.212V70.2356L248.014 44.7474L292.153 70.2356V121.212L248.014 146.7ZM205.387 120.343L248.014 144.963L290.641 120.343V71.1042L248.014 46.4846L205.387 71.1042V120.343Z" fill="#F8C85D"/>
<path d="M355.398 133.057L334.78 144.963L292.153 120.343V71.1042L334.78 46.4996L355.398 58.3901V56.6529L334.78 44.7625L290.641 70.2356V121.212L334.78 146.7L355.398 134.795V133.057Z" fill="#F8C85D"/>
<path d="M355.398 206.961L335.529 195.49V146.266L355.398 134.795V133.057L334.032 145.397V196.358L355.398 208.698V206.961Z" fill="#F8C85D"/>
<path d="M291.405 372.155L247.266 346.667V295.69L291.405 270.202L335.544 295.69V346.667L291.405 372.155ZM248.778 345.798L291.405 370.418L334.032 345.798V296.559L291.405 271.939L248.778 296.559V345.798Z" fill="#F8C85D"/>
<path d="M245.005 443.827L205.387 420.945V371.72L248.014 347.101L290.641 371.72V420.945L251.039 443.827H254.048L292.153 421.828V370.852L248.014 345.364L203.89 370.852V421.828L241.995 443.827H245.005Z" fill="#F8C85D"/>
<path d="M334.78 347.101L355.398 359.006V357.269L334.78 345.364L290.641 370.852V421.828L328.761 443.827H331.771L292.153 420.945V371.72L334.78 347.101Z" fill="#F8C85D"/>
<path d="M355.398 433.659L337.79 443.827H340.799L355.398 435.411V433.659Z" fill="#F8C85D"/>
<path d="M-6.23554 443.827L31.1211 422.263L68.4628 443.827H71.4872L31.1211 420.51L-9.26001 443.827H-6.23554Z" fill="#F8C85D"/>
<path d="M80.5157 443.827L117.872 422.263L155.229 443.827H158.238L117.872 420.51L77.5062 443.827H80.5157Z" fill="#F8C85D"/>
<path d="M167.282 443.827L204.639 422.263L241.995 443.827H245.005L204.639 420.51L164.272 443.827H167.282Z" fill="#F8C85D"/>
<path d="M254.048 443.827L291.405 422.263L328.761 443.827H331.771L291.405 420.51L251.039 443.827H254.048Z" fill="#F8C85D"/>
<path d="M355.398 433.659L337.79 443.827H340.799L355.398 435.411V433.659Z" fill="#F8C85D"/>
<path d="M47.6508 13.8682C45.1205 13.8682 43.0542 15.9198 43.0542 18.4656C43.0542 20.9965 45.1055 23.0631 47.6508 23.0631C50.1812 23.0631 52.2474 21.0114 52.2474 18.4656C52.2324 15.9348 50.1812 13.8682 47.6508 13.8682Z" fill="#F8C85D"/>
<path d="M47.6509 59.7828C49.2379 59.7828 50.5256 58.4949 50.5256 56.9075C50.5256 55.3201 49.2379 54.0322 47.6509 54.0322C46.0638 54.0322 44.7761 55.3201 44.7761 56.9075C44.7761 58.4949 46.0638 59.7828 47.6509 59.7828Z" fill="#F8C85D"/>
<path d="M80.9349 78.7116C82.3573 78.7116 83.5251 77.5585 83.5251 76.1209C83.5251 74.6982 82.3722 73.5302 80.9349 73.5302C79.5125 73.5302 78.3446 74.6832 78.3446 76.1209C78.3446 77.5585 79.4975 78.7116 80.9349 78.7116Z" fill="#F8C85D"/>
<path d="M80.935 0.570042C81.6709 0.570042 82.2675 -0.0266774 82.2675 -0.762769C82.2675 -1.49886 81.6709 -2.09558 80.935 -2.09558C80.199 -2.09558 79.6024 -1.49886 79.6024 -0.762769C79.6024 -0.0266774 80.199 0.570042 80.935 0.570042Z" fill="#F8C85D"/>
<path d="M114.219 21.1013C115.671 21.1013 116.854 19.9182 116.854 18.4656C116.854 17.013 115.671 15.83 114.219 15.83C112.767 15.83 111.584 17.013 111.584 18.4656C111.584 19.9182 112.767 21.1013 114.219 21.1013Z" fill="#F8C85D"/>
<path d="M114.219 52.28C111.659 52.28 109.592 54.3466 109.592 56.9074C109.592 59.4682 111.659 61.5348 114.219 61.5348C116.779 61.5348 118.845 59.4682 118.845 56.9074C118.845 54.3466 116.764 52.28 114.219 52.28Z" fill="#F8C85D"/>
<path d="M147.503 1.1989C148.581 1.1989 149.449 0.330328 149.449 -0.747901C149.449 -1.82613 148.581 -2.6947 147.503 -2.6947C146.425 -2.6947 145.557 -1.82613 145.557 -0.747901C145.557 0.315352 146.425 1.1989 147.503 1.1989Z" fill="#F8C85D"/>
<path d="M180.787 22.0598C182.764 22.0598 184.381 20.4574 184.381 18.4657C184.381 16.4889 182.778 14.8716 180.787 14.8716C178.811 14.8716 177.194 16.4739 177.194 18.4657C177.194 20.4424 178.811 22.0598 180.787 22.0598Z" fill="#F8C85D"/>
<path d="M180.787 61.1904C183.152 61.1904 185.069 59.2729 185.069 56.9075C185.069 54.5421 183.152 52.6245 180.787 52.6245C178.422 52.6245 176.505 54.5421 176.505 56.9075C176.505 59.2729 178.422 61.1904 180.787 61.1904Z" fill="#F8C85D"/>
<path d="M214.071 1.48347C215.314 1.48347 216.317 0.480117 216.317 -0.762843C216.317 -2.0058 215.314 -3.00916 214.071 -3.00916C212.829 -3.00916 211.825 -2.0058 211.825 -0.762843C211.84 0.480117 212.844 1.48347 214.071 1.48347Z" fill="#F8C85D"/>
<path d="M247.355 21.0413C248.778 21.0413 249.931 19.8882 249.931 18.4655C249.931 17.0429 248.778 15.8898 247.355 15.8898C245.933 15.8898 244.78 17.0429 244.78 18.4655C244.78 19.8882 245.933 21.0413 247.355 21.0413Z" fill="#F8C85D"/>
<path d="M247.355 58.7495C248.372 58.7495 249.197 57.9248 249.197 56.9075C249.197 55.8902 248.372 55.0656 247.355 55.0656C246.338 55.0656 245.514 55.8902 245.514 56.9075C245.514 57.9248 246.338 58.7495 247.355 58.7495Z" fill="#F8C85D"/>
<path d="M280.654 0.974292C281.613 0.974292 282.391 0.195571 282.391 -0.762854C282.391 -1.72128 281.613 -2.5 280.654 -2.5C279.696 -2.5 278.917 -1.72128 278.917 -0.762854C278.917 0.195571 279.696 0.974292 280.654 0.974292Z" fill="#F8C85D"/>
<path d="M313.939 21.1912C315.451 21.1912 316.664 19.9632 316.664 18.4656C316.664 16.9531 315.436 15.7401 313.939 15.7401C312.426 15.7401 311.214 16.9681 311.214 18.4656C311.199 19.9782 312.426 21.1912 313.939 21.1912Z" fill="#F8C85D"/>
<path d="M313.939 60.0073C315.65 60.0073 317.038 58.6194 317.038 56.9074C317.038 55.1954 315.65 53.8075 313.939 53.8075C312.227 53.8075 310.839 55.1954 310.839 56.9074C310.839 58.6194 312.227 60.0073 313.939 60.0073Z" fill="#F8C85D"/>
<path d="M347.223 1.84291C348.66 1.84291 349.828 0.674829 349.828 -0.762811C349.828 -2.20045 348.66 -3.36853 347.223 -3.36853C345.785 -3.36853 344.617 -2.20045 344.617 -0.762811C344.617 0.674829 345.785 1.84291 347.223 1.84291Z" fill="#F8C85D"/>
<path d="M80.9348 118.037C82.8513 118.037 84.4085 116.48 84.4085 114.563C84.4085 112.646 82.8513 111.088 80.9348 111.088C79.0184 111.088 77.4612 112.646 77.4612 114.563C77.4612 116.494 79.0184 118.037 80.9348 118.037Z" fill="#F8C85D"/>
<path d="M147.503 74.3538C146.53 74.3538 145.721 75.1475 145.721 76.1358C145.721 77.1092 146.515 77.9179 147.503 77.9179C148.491 77.9179 149.285 77.1242 149.285 76.1358C149.285 75.1475 148.476 74.3538 147.503 74.3538Z" fill="#F8C85D"/>
<path d="M147.503 117.872C149.315 117.872 150.797 116.405 150.797 114.578C150.797 112.766 149.33 111.283 147.503 111.283C145.691 111.283 144.209 112.751 144.209 114.578C144.209 116.39 145.691 117.872 147.503 117.872Z" fill="#F8C85D"/>
<path d="M180.787 135.873C181.937 135.873 182.868 134.941 182.868 133.791C182.868 132.642 181.937 131.71 180.787 131.71C179.638 131.71 178.706 132.642 178.706 133.791C178.706 134.941 179.638 135.873 180.787 135.873Z" fill="#F8C85D"/>
<path d="M214.071 71.2689C211.391 71.2689 209.205 73.4404 209.205 76.1359C209.205 78.8165 211.376 81.0029 214.071 81.0029C216.751 81.0029 218.937 78.8315 218.937 76.1359C218.937 73.4404 216.766 71.2689 214.071 71.2689Z" fill="#F8C85D"/>
<path d="M280.654 79.7449C282.646 79.7449 284.263 78.1275 284.263 76.1358C284.263 74.1441 282.646 72.5267 280.654 72.5267C278.663 72.5267 277.046 74.1441 277.046 76.1358C277.046 78.1275 278.648 79.7449 280.654 79.7449Z" fill="#F8C85D"/>
<path d="M313.938 137.385C315.93 137.385 317.532 135.768 317.532 133.791C317.532 131.8 315.915 130.197 313.938 130.197C311.947 130.197 310.345 131.814 310.345 133.791C310.345 135.783 311.947 137.385 313.938 137.385Z" fill="#F8C85D"/>
<path d="M280.654 118.816C282.99 118.816 284.892 116.914 284.892 114.578C284.892 112.242 282.99 110.34 280.654 110.34C278.319 110.34 276.417 112.242 276.417 114.578C276.402 116.914 278.304 118.816 280.654 118.816Z" fill="#F8C85D"/>
<path d="M347.223 79.9845C349.349 79.9845 351.07 78.2624 351.07 76.1209C351.07 73.9944 349.349 72.2572 347.223 72.2572C345.096 72.2572 343.36 73.9794 343.36 76.1209C343.36 78.2624 345.096 79.9845 347.223 79.9845Z" fill="#F8C85D"/>
<path d="M116.989 133.791C116.989 132.264 115.746 131.021 114.219 131.021C112.692 131.021 111.449 132.264 111.449 133.791C111.449 135.319 112.692 136.562 114.219 136.562C115.746 136.562 116.989 135.319 116.989 133.791Z" fill="#F8C85D"/>
<path d="M214.071 116.809C215.303 116.809 216.302 115.81 216.302 114.578C216.302 113.345 215.303 112.346 214.071 112.346C212.839 112.346 211.84 113.345 211.84 114.578C211.84 115.81 212.839 116.809 214.071 116.809Z" fill="#F8C85D"/>
<path d="M247.355 136.187C248.673 136.187 249.751 135.124 249.751 133.791C249.751 132.473 248.688 131.395 247.355 131.395C246.038 131.395 244.96 132.458 244.96 133.791C244.975 135.109 246.038 136.187 247.355 136.187Z" fill="#F8C85D"/>
<path d="M347.223 193.828C348.529 193.828 349.588 192.768 349.588 191.461C349.588 190.155 348.529 189.095 347.223 189.095C345.916 189.095 344.857 190.155 344.857 191.461C344.857 192.768 345.916 193.828 347.223 193.828Z" fill="#F8C85D"/>
<path d="M313.938 169.148C312.232 169.148 310.854 170.526 310.854 172.233C310.854 173.94 312.232 175.318 313.938 175.318C315.645 175.318 317.023 173.94 317.023 172.233C317.008 170.541 315.63 169.148 313.938 169.148Z" fill="#F8C85D"/>
<path d="M347.223 117.528C348.852 117.528 350.172 116.207 350.172 114.578C350.172 112.948 348.852 111.628 347.223 111.628C345.593 111.628 344.273 112.948 344.273 114.578C344.273 116.207 345.593 117.528 347.223 117.528Z" fill="#F8C85D"/>
<path d="M180.787 168.684C178.826 168.684 177.224 170.271 177.224 172.248C177.224 174.21 178.811 175.812 180.787 175.812C182.749 175.812 184.351 174.225 184.351 172.248C184.351 170.271 182.749 168.684 180.787 168.684Z" fill="#F8C85D"/>
<path d="M210.388 191.461C210.388 193.498 212.035 195.16 214.086 195.16C216.122 195.16 217.784 193.513 217.784 191.461C217.784 189.425 216.137 187.763 214.086 187.763C212.035 187.763 210.388 189.41 210.388 191.461Z" fill="#F8C85D"/>
<path d="M247.355 251.348C248.587 251.348 249.586 250.349 249.586 249.117C249.586 247.884 248.587 246.885 247.355 246.885C246.123 246.885 245.124 247.884 245.124 249.117C245.124 250.349 246.123 251.348 247.355 251.348Z" fill="#F8C85D"/>
<path d="M214.071 232.809C215.675 232.809 216.976 231.508 216.976 229.903C216.976 228.299 215.675 226.998 214.071 226.998C212.467 226.998 211.166 228.299 211.166 229.903C211.166 231.508 212.467 232.809 214.071 232.809Z" fill="#F8C85D"/>
<path d="M247.355 175.333C249.067 175.333 250.455 173.945 250.455 172.233C250.455 170.521 249.067 169.133 247.355 169.133C245.644 169.133 244.256 170.521 244.256 172.233C244.256 173.945 245.644 175.333 247.355 175.333Z" fill="#F8C85D"/>
<path d="M280.654 234.306C283.085 234.306 285.056 232.335 285.056 229.903C285.056 227.472 283.085 225.501 280.654 225.501C278.223 225.501 276.252 227.472 276.252 229.903C276.252 232.335 278.223 234.306 280.654 234.306Z" fill="#F8C85D"/>
<path d="M313.939 251.618C315.316 251.618 316.424 250.51 316.424 249.132C316.424 247.754 315.316 246.646 313.939 246.646C312.561 246.646 311.453 247.754 311.453 249.132C311.438 250.495 312.561 251.618 313.939 251.618Z" fill="#F8C85D"/>
<path d="M280.654 195.819C283.065 195.819 285.011 193.873 285.011 191.461C285.011 189.05 283.065 187.104 280.654 187.104C278.244 187.104 276.297 189.05 276.297 191.461C276.282 193.873 278.244 195.819 280.654 195.819Z" fill="#F8C85D"/>
<path d="M347.222 231.88C348.314 231.88 349.199 230.995 349.199 229.903C349.199 228.812 348.314 227.927 347.222 227.927C346.131 227.927 345.246 228.812 345.246 229.903C345.246 230.995 346.131 231.88 347.222 231.88Z" fill="#F8C85D"/>
<path d="M14.3517 310.531C16.4179 310.531 18.0949 308.854 18.0949 306.787C18.0949 304.72 16.4179 303.043 14.3517 303.043C12.2855 303.043 10.6086 304.72 10.6086 306.787C10.6086 308.854 12.2855 310.531 14.3517 310.531Z" fill="#F8C85D"/>
<path d="M14.3518 349.332C16.6126 349.332 18.4543 347.49 18.4543 345.229C18.4543 342.968 16.6126 341.126 14.3518 341.126C12.0909 341.126 10.2493 342.968 10.2493 345.229C10.2642 347.49 12.0909 349.332 14.3518 349.332Z" fill="#F8C85D"/>
<path d="M247.355 362.391C246.217 362.391 245.304 363.304 245.304 364.442C245.304 365.581 246.217 366.494 247.355 366.494C248.493 366.494 249.407 365.581 249.407 364.442C249.407 363.304 248.493 362.391 247.355 362.391Z" fill="#F8C85D"/>
<path d="M247.355 289.955C248.673 289.955 249.751 288.877 249.751 287.559C249.751 286.241 248.673 285.163 247.355 285.163C246.038 285.163 244.96 286.241 244.96 287.559C244.96 288.892 246.038 289.955 247.355 289.955Z" fill="#F8C85D"/>
<path d="M280.654 302.1C278.064 302.1 275.968 304.196 275.968 306.787C275.968 309.378 278.064 311.474 280.654 311.474C283.245 311.474 285.341 309.378 285.341 306.787C285.326 304.196 283.23 302.1 280.654 302.1Z" fill="#F8C85D"/>
<path d="M313.938 290.105C315.346 290.105 316.484 288.966 316.484 287.559C316.484 286.151 315.346 285.013 313.938 285.013C312.531 285.013 311.393 286.151 311.393 287.559C311.393 288.966 312.531 290.105 313.938 290.105Z" fill="#F8C85D"/>
<path d="M347.222 310.606C349.334 310.606 351.041 308.899 351.041 306.787C351.041 304.676 349.334 302.968 347.222 302.968C345.111 302.968 343.404 304.676 343.404 306.787C343.404 308.899 345.111 310.606 347.222 310.606Z" fill="#F8C85D"/>
<path d="M347.222 340.137C344.408 340.137 342.132 342.414 342.132 345.229C342.132 348.044 344.408 350.321 347.222 350.321C350.037 350.321 352.313 348.044 352.313 345.229C352.313 342.414 350.022 340.137 347.222 340.137Z" fill="#F8C85D"/>
<path d="M14.3517 425.302C16.1035 425.302 17.5259 423.88 17.5259 422.128C17.5259 420.376 16.1035 418.953 14.3517 418.953C12.5999 418.953 11.1776 420.376 11.1776 422.128C11.1776 423.865 12.5999 425.302 14.3517 425.302Z" fill="#F8C85D"/>
<path d="M250.125 402.899C250.125 401.372 248.883 400.129 247.355 400.129C245.828 400.129 244.585 401.372 244.585 402.899C244.585 404.427 245.828 405.67 247.355 405.67C248.883 405.655 250.125 404.412 250.125 402.899Z" fill="#F8C85D"/>
<path d="M313.939 368.051C315.93 368.051 317.532 366.434 317.532 364.457C317.532 362.466 315.915 360.863 313.939 360.863C311.947 360.863 310.345 362.481 310.345 364.457C310.33 366.434 311.947 368.051 313.939 368.051Z" fill="#F8C85D"/>
<path d="M313.938 399.305C311.947 399.305 310.345 400.908 310.345 402.899C310.345 404.891 311.947 406.493 313.938 406.493C315.93 406.493 317.532 404.891 317.532 402.899C317.532 400.908 315.915 399.305 313.938 399.305Z" fill="#F8C85D"/>
<path d="M214.071 424.973C215.643 424.973 216.931 423.685 216.931 422.113C216.931 420.54 215.643 419.252 214.071 419.252C212.499 419.252 211.211 420.54 211.211 422.113C211.211 423.7 212.499 424.973 214.071 424.973Z" fill="#F8C85D"/>
<path d="M280.654 425.272C282.406 425.272 283.814 423.85 283.814 422.113C283.814 420.361 282.391 418.953 280.654 418.953C278.903 418.953 277.495 420.376 277.495 422.113C277.48 423.865 278.903 425.272 280.654 425.272Z" fill="#F8C85D"/>
</g>
</g>
<defs>
<clipPath id="clip0">
<rect width="352" height="440" fill="white" transform="translate(0 -5)"/>
</clipPath>
</defs>
</svg>
